<svg xmlns="http://www.w3.org/2000/svg" viewBox="0 0 512 512" role="img" aria-labelledby="title desc">
  <title id="title">康镜智顾</title>
  <desc id="desc">大健康舌象营养观察服务图标</desc>
  <rect width="512" height="512" rx="112" fill="#f5f8f6"/>
  <rect x="56" y="56" width="400" height="400" rx="88" fill="#ffffff" stroke="#b7d4c8" stroke-width="10"/>
  <circle cx="256" cy="242" r="126" fill="#e2f4ed" stroke="#08765f" stroke-width="16"/>
  <path d="M256 141c57 0 103 43 103 96 0 64-45 130-103 130S153 301 153 237c0-53 46-96 103-96Z" fill="#eb7686"/>
  <path d="M256 154c38 0 72 25 84 61-18-16-48-25-84-25s-66 9-84 25c12-36 46-61 84-61Z" fill="#ffc5ca" opacity=".88"/>
  <path d="M207 286c28 14 70 14 98 0" fill="none" stroke="#9e384f" stroke-width="12" stroke-linecap="round"/>
  <path d="M123 125h62M327 125h62M123 359h62M327 359h62" stroke="#79bd45" stroke-width="18" stroke-linecap="round"/>
  <path d="M107 216h48M357 216h48M107 276h48M357 276h48" stroke="#2f6f98" stroke-width="14" stroke-linecap="round"/>
</svg>
