<svg xmlns="http://www.w3.org/2000/svg" viewBox="0 0 1600 900" role="img" aria-labelledby="title desc">
  <title id="title">康镜智顾拍摄示范图</title>
  <desc id="desc">大健康舌象观察拍摄流程的横幅示意图</desc>
  <defs>
    <linearGradient id="bg2" x1="0" y1="0" x2="1" y2="1">
      <stop offset="0" stop-color="#0d1f18" />
      <stop offset="0.48" stop-color="#15382f" />
      <stop offset="1" stop-color="#f2f4ef" />
    </linearGradient>
    <linearGradient id="lightPanel" x1="0" y1="0" x2="1" y2="0">
      <stop offset="0" stop-color="#f7f8f1" />
      <stop offset="1" stop-color="#e4efe7" />
    </linearGradient>
    <linearGradient id="bannerGlass" x1="0" y1="0" x2="1" y2="1">
      <stop offset="0" stop-color="#ffffff" stop-opacity="0.8" />
      <stop offset="1" stop-color="#d8efe4" stop-opacity="0.12" />
    </linearGradient>
    <linearGradient id="tongue2" x1="0" y1="0" x2="0" y2="1">
      <stop offset="0" stop-color="#ffb9bf" />
      <stop offset="0.55" stop-color="#e86d7d" />
      <stop offset="1" stop-color="#b33d57" />
    </linearGradient>
    <linearGradient id="phone2" x1="0" y1="0" x2="0" y2="1">
      <stop offset="0" stop-color="#252f2d" />
      <stop offset="1" stop-color="#0f1513" />
    </linearGradient>
    <linearGradient id="desk2" x1="0" y1="0" x2="1" y2="0">
      <stop offset="0" stop-color="#ece8dc" />
      <stop offset="0.55" stop-color="#f7f5ee" />
      <stop offset="1" stop-color="#dde7df" />
    </linearGradient>
    <filter id="shadow2" x="-25%" y="-25%" width="150%" height="150%">
      <feDropShadow dx="0" dy="18" stdDeviation="24" flood-color="#0d1f18" flood-opacity="0.28" />
    </filter>
    <filter id="soft2" x="-25%" y="-25%" width="150%" height="150%">
      <feGaussianBlur stdDeviation="18" />
    </filter>
  </defs>

  <rect width="1600" height="900" fill="url(#bg2)" />
  <rect x="0" y="0" width="760" height="900" fill="#0d1f18" />
  <path d="M760 0H1600V900H1134c-88-154-136-300-122-437 10-96 46-191 108-286Z" fill="url(#lightPanel)" opacity="0.97" />

  <g opacity="0.28">
    <rect x="1110" y="48" width="24" height="320" rx="12" fill="#ffffff" />
    <rect x="1162" y="86" width="24" height="372" rx="12" fill="#ffffff" />
    <rect x="1214" y="56" width="24" height="346" rx="12" fill="#ffffff" />
    <rect x="1266" y="102" width="24" height="316" rx="12" fill="#ffffff" />
    <rect x="1318" y="70" width="24" height="356" rx="12" fill="#ffffff" />
  </g>

  <path d="M1018 0c160 36 286 90 408 180" stroke="#79bd45" stroke-opacity="0.14" stroke-width="18" stroke-linecap="round" />
  <path d="M944 28c148 18 266 66 368 128" stroke="#f2ad3f" stroke-opacity="0.14" stroke-width="14" stroke-linecap="round" />

  <g transform="translate(120,98)">
    <rect x="0" y="0" width="482" height="158" rx="24" fill="#10261f" opacity="0.92" filter="url(#shadow2)" />
    <rect x="24" y="22" width="120" height="16" rx="8" fill="#79bd45" opacity="0.9" />
    <rect x="24" y="54" width="248" height="16" rx="8" fill="#f7fbf8" opacity="0.76" />
    <rect x="24" y="84" width="208" height="12" rx="6" fill="#d9e5df" opacity="0.72" />
    <rect x="24" y="108" width="144" height="12" rx="6" fill="#d9e5df" opacity="0.72" />
    <g transform="translate(306,24)">
      <rect x="0" y="0" width="152" height="110" rx="20" fill="url(#bannerGlass)" />
      <path d="M32 84c19-32 39-48 61-48 20 0 35 9 52 22" fill="none" stroke="#08765f" stroke-width="9" stroke-linecap="round" />
      <path d="M32 84c19-22 39-32 61-32 20 0 35 6 52 16" fill="none" stroke="#79bd45" stroke-width="5" stroke-linecap="round" opacity="0.9" />
      <circle cx="32" cy="84" r="8" fill="#f2ad3f" />
    </g>
  </g>

  <g transform="translate(124,560)">
    <rect x="0" y="0" width="560" height="206" rx="28" fill="#0f1714" opacity="0.26" filter="url(#soft2)" />
    <rect x="34" y="30" width="220" height="146" rx="24" fill="url(#desk2)" filter="url(#shadow2)" />
    <rect x="54" y="48" width="160" height="12" rx="6" fill="#d8e2db" />
    <rect x="54" y="74" width="104" height="12" rx="6" fill="#e8eee8" />
    <rect x="54" y="104" width="136" height="12" rx="6" fill="#e2d8c8" />
    <rect x="54" y="132" width="88" height="12" rx="6" fill="#d8e2db" />
    <circle cx="328" cy="92" r="56" fill="#f8f8f2" stroke="#b7d4c8" stroke-width="10" />
    <circle cx="328" cy="92" r="30" fill="#79bd45" />
    <path d="M328 54c18 0 33 15 33 34 0 22-16 58-33 82-17-24-33-60-33-82 0-19 15-34 33-34Z" fill="url(#tongue2)" />
    <rect x="408" y="38" width="112" height="120" rx="24" fill="url(#bannerGlass)" />
    <rect x="428" y="58" width="72" height="12" rx="6" fill="#17332b" opacity="0.72" />
    <rect x="428" y="82" width="50" height="12" rx="6" fill="#667a72" />
    <rect x="428" y="106" width="62" height="12" rx="6" fill="#79bd45" />
  </g>

  <g transform="translate(704,392)" filter="url(#shadow2)">
    <rect x="0" y="0" width="282" height="342" rx="34" fill="url(#phone2)" />
    <rect x="18" y="18" width="246" height="306" rx="28" fill="#eef6f2" />
    <rect x="32" y="34" width="218" height="244" rx="24" fill="#f8fbf8" />
    <ellipse cx="141" cy="162" rx="74" ry="110" fill="url(#tongue2)" />
    <path d="M141 80c43 0 76 31 76 70 0 48-33 111-76 111s-76-63-76-111c0-39 33-70 76-70Z" fill="none" stroke="#ffffff" stroke-width="10" opacity="0.42" />
    <rect x="32" y="290" width="218" height="12" rx="6" fill="#d8e2db" />
  </g>

  <g transform="translate(1080,266)" filter="url(#shadow2)">
    <rect x="0" y="0" width="298" height="374" rx="34" fill="#fbfaf4" />
    <ellipse cx="149" cy="178" rx="120" ry="132" fill="#ffffff" />
    <ellipse cx="149" cy="178" rx="106" ry="118" fill="#efe2cb" />
    <ellipse cx="149" cy="178" rx="88" ry="98" fill="url(#tongue2)" />
    <path d="M149 92c41 0 76 33 76 73 0 50-33 105-76 105s-76-55-76-105c0-40 35-73 76-73Z" fill="none" stroke="#ffffff" stroke-width="10" opacity="0.36" />
    <rect x="24" y="28" width="250" height="44" rx="22" fill="url(#bannerGlass)" />
    <rect x="56" y="330" width="186" height="16" rx="8" fill="#d9e5df" />
  </g>

  <g transform="translate(522,206)" filter="url(#shadow2)">
    <rect x="0" y="0" width="224" height="274" rx="28" fill="url(#bannerGlass)" stroke="#ffffff" stroke-opacity="0.52" />
    <rect x="20" y="22" width="98" height="14" rx="7" fill="#08765f" opacity="0.82" />
    <rect x="20" y="50" width="138" height="12" rx="6" fill="#d8e2db" />
    <rect x="20" y="72" width="118" height="12" rx="6" fill="#d8e2db" />
    <rect x="20" y="110" width="184" height="118" rx="22" fill="#eef8f3" />
    <path d="M48 190c22-40 44-60 67-60 20 0 35 10 53 24 13 11 29 17 48 17" fill="none" stroke="#08765f" stroke-width="9" stroke-linecap="round" />
    <circle cx="50" cy="216" r="9" fill="#f2ad3f" />
    <circle cx="78" cy="216" r="9" fill="#79bd45" />
    <circle cx="106" cy="216" r="9" fill="#c9656f" />
    <rect x="20" y="244" width="112" height="12" rx="6" fill="#d8e2db" />
  </g>

  <g transform="translate(388,764)">
    <rect x="0" y="0" width="824" height="88" rx="22" fill="#ffffff" opacity="0.76" />
    <g transform="translate(24,18)">
      <circle cx="26" cy="26" r="26" fill="#08765f" opacity="0.12" />
      <path d="M26 10c11 0 20 8 20 18 0 11-8 25-20 38-12-13-20-27-20-38 0-10 9-18 20-18Z" fill="#08765f" />
      <rect x="68" y="18" width="148" height="12" rx="6" fill="#17332b" opacity="0.82" />
      <rect x="68" y="40" width="104" height="10" rx="5" fill="#667a72" />
    </g>
    <g transform="translate(292,18)">
      <circle cx="26" cy="26" r="26" fill="#f2ad3f" opacity="0.12" />
      <path d="M26 10c11 0 20 8 20 18 0 11-8 25-20 38-12-13-20-27-20-38 0-10 9-18 20-18Z" fill="#f2ad3f" />
      <rect x="68" y="18" width="154" height="12" rx="6" fill="#17332b" opacity="0.82" />
      <rect x="68" y="40" width="112" height="10" rx="5" fill="#667a72" />
    </g>
    <g transform="translate(572,18)">
      <circle cx="26" cy="26" r="26" fill="#c9656f" opacity="0.12" />
      <path d="M26 10c11 0 20 8 20 18 0 11-8 25-20 38-12-13-20-27-20-38 0-10 9-18 20-18Z" fill="#c9656f" />
      <rect x="68" y="18" width="152" height="12" rx="6" fill="#17332b" opacity="0.82" />
      <rect x="68" y="40" width="104" height="10" rx="5" fill="#667a72" />
    </g>
  </g>
</svg>
