<svg xmlns="http://www.w3.org/2000/svg" viewBox="0 0 1600 1024" role="img" aria-labelledby="title desc">
  <title id="title">康镜智顾首屏示范图</title>
  <desc id="desc">大健康舌象营养观察的高质感示范场景图</desc>
  <defs>
    <linearGradient id="bg" x1="0" y1="0" x2="1" y2="1">
      <stop offset="0" stop-color="#091914" />
      <stop offset="0.42" stop-color="#12352c" />
      <stop offset="0.72" stop-color="#f3f5f0" />
      <stop offset="1" stop-color="#e8efe7" />
    </linearGradient>
    <linearGradient id="leftPanel" x1="0" y1="0" x2="1" y2="0">
      <stop offset="0" stop-color="#081711" />
      <stop offset="1" stop-color="#18392f" />
    </linearGradient>
    <linearGradient id="desk" x1="0" y1="0" x2="1" y2="0">
      <stop offset="0" stop-color="#edece4" />
      <stop offset="0.5" stop-color="#f6f6ef" />
      <stop offset="1" stop-color="#e0e6df" />
    </linearGradient>
    <linearGradient id="glass" x1="0" y1="0" x2="1" y2="1">
      <stop offset="0" stop-color="#ffffff" stop-opacity="0.7" />
      <stop offset="1" stop-color="#d8efe4" stop-opacity="0.14" />
    </linearGradient>
    <linearGradient id="screen" x1="0" y1="0" x2="0" y2="1">
      <stop offset="0" stop-color="#f7fcfb" />
      <stop offset="1" stop-color="#dff1e8" />
    </linearGradient>
    <linearGradient id="phoneBody" x1="0" y1="0" x2="0" y2="1">
      <stop offset="0" stop-color="#1f2a28" />
      <stop offset="1" stop-color="#0b120f" />
    </linearGradient>
    <linearGradient id="accent" x1="0" y1="0" x2="1" y2="1">
      <stop offset="0" stop-color="#08765f" />
      <stop offset="1" stop-color="#79bd45" />
    </linearGradient>
    <linearGradient id="tongue" x1="0" y1="0" x2="0" y2="1">
      <stop offset="0" stop-color="#ffb0b7" />
      <stop offset="0.45" stop-color="#e96f7f" />
      <stop offset="1" stop-color="#b93d58" />
    </linearGradient>
    <filter id="softBlur" x="-25%" y="-25%" width="150%" height="150%">
      <feGaussianBlur stdDeviation="22" />
    </filter>
    <filter id="shadow" x="-25%" y="-25%" width="150%" height="150%">
      <feDropShadow dx="0" dy="22" stdDeviation="26" flood-color="#0b1a15" flood-opacity="0.3" />
    </filter>
    <filter id="cardShadow" x="-20%" y="-20%" width="140%" height="140%">
      <feDropShadow dx="0" dy="14" stdDeviation="18" flood-color="#17332b" flood-opacity="0.18" />
    </filter>
  </defs>

  <rect width="1600" height="1024" fill="url(#bg)" />
  <rect width="760" height="1024" fill="url(#leftPanel)" />
  <path d="M760 0H1600V1024H1015c-84-139-132-272-121-391 8-92 39-184 90-281Z" fill="#f3f5f0" opacity="0.95" />
  <path d="M1035 0H1600V1024H1165c-12-186 37-371 135-556 63-119 140-207 220-268Z" fill="#e8efe7" opacity="0.72" />

  <path d="M937 106c168 12 316 60 463 142" stroke="#ffffff" stroke-opacity="0.12" stroke-width="28" stroke-linecap="round" filter="url(#softBlur)" />
  <path d="M1008 84c182 32 314 92 409 170" stroke="#79bd45" stroke-opacity="0.18" stroke-width="18" stroke-linecap="round" />
  <path d="M1108 62c145 24 238 74 313 136" stroke="#f2ad3f" stroke-opacity="0.14" stroke-width="16" stroke-linecap="round" />

  <g opacity="0.3">
    <rect x="1090" y="96" width="18" height="372" rx="9" fill="#ffffff" />
    <rect x="1130" y="58" width="18" height="460" rx="9" fill="#ffffff" />
    <rect x="1170" y="82" width="18" height="426" rx="9" fill="#ffffff" />
    <rect x="1210" y="48" width="18" height="480" rx="9" fill="#ffffff" />
    <rect x="1250" y="90" width="18" height="420" rx="9" fill="#ffffff" />
  </g>

  <g transform="translate(136,116)">
    <rect x="0" y="0" width="422" height="130" rx="20" fill="#0f271f" opacity="0.86" />
    <rect x="20" y="20" width="88" height="88" rx="18" fill="url(#glass)" filter="url(#cardShadow)" />
    <rect x="176" y="25" width="214" height="18" rx="9" fill="#ffffff" opacity="0.82" />
    <rect x="176" y="59" width="146" height="12" rx="6" fill="#ffffff" opacity="0.48" />
    <rect x="176" y="83" width="178" height="12" rx="6" fill="#79bd45" opacity="0.64" />
    <path d="M54 88c15-2 24-12 27-25 3-14-2-29-14-38" fill="none" stroke="url(#accent)" stroke-width="8" stroke-linecap="round" />
    <path d="M71 44c10 10 13 21 10 33-4 14-15 23-28 26" fill="none" stroke="#dff1e8" stroke-width="6" stroke-linecap="round" opacity="0.95" />
  </g>

  <g transform="translate(88,540)">
    <rect x="0" y="0" width="536" height="340" rx="28" fill="#0f1714" opacity="0.24" filter="url(#softBlur)" />
    <rect x="38" y="34" width="430" height="240" rx="24" fill="#f7f5ee" opacity="0.94" filter="url(#cardShadow)" />
    <rect x="58" y="56" width="276" height="18" rx="9" fill="#d7e2da" />
    <rect x="58" y="92" width="184" height="18" rx="9" fill="#e9efe8" />
    <rect x="58" y="130" width="226" height="18" rx="9" fill="#d9eadf" />
    <rect x="58" y="170" width="190" height="18" rx="9" fill="#e2d8c6" />
    <rect x="58" y="214" width="140" height="12" rx="6" fill="#d5ddd7" />
    <rect x="320" y="56" width="126" height="126" rx="18" fill="#edf4ef" />
    <circle cx="382" cy="118" r="36" fill="#fffdf7" stroke="#b7d4c8" stroke-width="8" />
    <circle cx="382" cy="118" r="18" fill="#79bd45" />
    <path d="M382 88c12 0 24 10 24 23 0 18-14 52-24 68-10-16-24-50-24-68 0-13 12-23 24-23Z" fill="url(#tongue)" />
    <rect x="320" y="196" width="126" height="22" rx="11" fill="#dfece4" />
    <rect x="320" y="230" width="90" height="12" rx="6" fill="#d9e1d9" />
    <rect x="320" y="254" width="112" height="12" rx="6" fill="#e8ddcb" />
  </g>

  <g transform="translate(760,460)" filter="url(#shadow)">
    <rect x="0" y="0" width="276" height="360" rx="34" fill="url(#phoneBody)" />
    <rect x="18" y="18" width="240" height="324" rx="28" fill="url(#screen)" />
    <rect x="28" y="32" width="220" height="40" rx="20" fill="#ffffff" opacity="0.72" />
    <rect x="28" y="86" width="220" height="186" rx="24" fill="#f2f7f4" />
    <ellipse cx="138" cy="178" rx="76" ry="114" fill="url(#tongue)" />
    <path d="M138 74c43 0 77 34 77 76 0 51-34 116-77 116s-77-65-77-116c0-42 34-76 77-76Z" fill="none" stroke="#ffffff" stroke-width="10" opacity="0.42" />
    <path d="M138 108c-16 0-28 11-28 24 0 14 13 29 28 48 15-19 28-34 28-48 0-13-12-24-28-24Z" fill="#ffd7dc" opacity="0.66" />
    <path d="M28 296h220" stroke="#d7e5dd" stroke-width="8" stroke-linecap="round" />
  </g>

  <g transform="translate(1125,292)" filter="url(#shadow)">
    <ellipse cx="118" cy="150" rx="148" ry="168" fill="#faf9f3" opacity="0.92" />
    <ellipse cx="118" cy="150" rx="122" ry="140" fill="#ffffff" />
    <ellipse cx="118" cy="150" rx="108" ry="124" fill="#f6f5ef" />
    <ellipse cx="118" cy="150" rx="90" ry="104" fill="#efe1c9" opacity="0.98" />
    <path d="M118 70c52 0 94 39 94 88 0 58-39 118-94 118s-94-60-94-118c0-49 42-88 94-88Z" fill="url(#tongue)" />
    <path d="M118 88c-28 0-52 18-52 42 0 13 5 28 16 42 12 16 25 31 36 48 11-17 24-32 36-48 11-14 16-29 16-42 0-24-24-42-52-42Z" fill="#ffd7dc" opacity="0.5" />
    <rect x="18" y="19" width="200" height="36" rx="18" fill="url(#glass)" />
  </g>

  <g transform="translate(640,238)" filter="url(#cardShadow)">
    <rect x="0" y="0" width="236" height="286" rx="28" fill="url(#glass)" stroke="#ffffff" stroke-opacity="0.52" />
    <rect x="22" y="24" width="80" height="12" rx="6" fill="#08765f" opacity="0.8" />
    <rect x="22" y="48" width="120" height="12" rx="6" fill="#d8e6df" />
    <rect x="22" y="72" width="156" height="12" rx="6" fill="#d8e6df" />
    <rect x="22" y="104" width="192" height="110" rx="20" fill="#eef8f3" />
    <path d="M52 186c20-44 42-68 67-68 23 0 39 11 58 28 14 13 31 20 51 20" fill="none" stroke="#08765f" stroke-width="10" stroke-linecap="round" />
    <path d="M52 188c17-30 36-46 58-46 21 0 38 10 57 22 16 10 35 16 55 16" fill="none" stroke="#79bd45" stroke-width="6" stroke-linecap="round" opacity="0.85" />
    <circle cx="46" cy="214" r="10" fill="#f2ad3f" />
    <circle cx="78" cy="214" r="10" fill="#79bd45" />
    <circle cx="110" cy="214" r="10" fill="#c9656f" />
    <rect x="22" y="234" width="150" height="14" rx="7" fill="#d8e6df" />
  </g>

  <g transform="translate(420,792)">
    <rect x="0" y="0" width="720" height="128" rx="24" fill="#ffffff" opacity="0.74" filter="url(#cardShadow)" />
    <g transform="translate(24,22)">
      <rect x="0" y="0" width="204" height="84" rx="18" fill="#f6faf7" stroke="#d9e5df" />
      <circle cx="34" cy="42" r="22" fill="#08765f" opacity="0.18" />
      <path d="M34 18c10 0 18 8 18 18 0 12-8 28-18 38-10-10-18-26-18-38 0-10 8-18 18-18Z" fill="#08765f" />
      <rect x="72" y="24" width="102" height="12" rx="6" fill="#17332b" opacity="0.82" />
      <rect x="72" y="46" width="88" height="10" rx="5" fill="#667a72" />
    </g>
    <g transform="translate(258,22)">
      <rect x="0" y="0" width="204" height="84" rx="18" fill="#f6faf7" stroke="#d9e5df" />
      <rect x="22" y="22" width="48" height="40" rx="12" fill="#f2ad3f" opacity="0.2" />
      <path d="M24 32h44M24 42h32M24 52h38" stroke="#f2ad3f" stroke-width="5" stroke-linecap="round" />
      <rect x="84" y="24" width="92" height="12" rx="6" fill="#17332b" opacity="0.82" />
      <rect x="84" y="46" width="70" height="10" rx="5" fill="#667a72" />
    </g>
    <g transform="translate(492,22)">
      <rect x="0" y="0" width="204" height="84" rx="18" fill="#f6faf7" stroke="#d9e5df" />
      <circle cx="34" cy="42" r="22" fill="#c9656f" opacity="0.18" />
      <path d="M34 24c12 0 20 9 20 20 0 12-8 23-20 36-12-13-20-24-20-36 0-11 8-20 20-20Z" fill="#c9656f" />
      <rect x="72" y="24" width="102" height="12" rx="6" fill="#17332b" opacity="0.82" />
      <rect x="72" y="46" width="88" height="10" rx="5" fill="#667a72" />
    </g>
  </g>
</svg>
